<?xml version="1.0" encoding="UTF-8" standalone="no"?>
<svg
   xmlns:dc="http://purl.org/dc/elements/1.1/"
   xmlns:cc="http://creativecommons.org/ns#"
   xmlns:rdf="http://www.w3.org/1999/02/22-rdf-syntax-ns#"
   xmlns:svg="http://www.w3.org/2000/svg"
   xmlns="http://www.w3.org/2000/svg"
   xmlns:sodipodi="http://sodipodi.sourceforge.net/DTD/sodipodi-0.dtd"
   xmlns:inkscape="http://www.inkscape.org/namespaces/inkscape"
   enable-background="new 0 0 515.91 728.5"
   height="512"
   id="Layer_1"
   version="1.1"
   viewBox="0 0 512.00003 512"
   width="512"
   xml:space="preserve"
   inkscape:version="0.91 r13725"
   sodipodi:docname="Gnome.svg"><metadata
     id="metadata3410"><rdf:RDF><cc:Work
         rdf:about=""><dc:format>image/svg+xml</dc:format><dc:type
           rdf:resource="http://purl.org/dc/dcmitype/StillImage" /></cc:Work></rdf:RDF></metadata><sodipodi:namedview
     pagecolor="#ffffff"
     bordercolor="#666666"
     borderopacity="1"
     objecttolerance="10"
     gridtolerance="10"
     guidetolerance="10"
     inkscape:pageopacity="0"
     inkscape:pageshadow="2"
     inkscape:window-width="1920"
     inkscape:window-height="1043"
     id="namedview3408"
     showgrid="false"
     inkscape:zoom="1.6679688"
     inkscape:cx="256"
     inkscape:cy="256"
     inkscape:window-x="0"
     inkscape:window-y="360"
     inkscape:window-maximized="1"
     inkscape:current-layer="g4137" /><defs
     id="defs7" /><g
     id="g4137"
     transform="translate(71.475064,43.981889)"><g
       id="g17355"
       style="fill:#ffffff;fill-opacity:1"
       transform="matrix(1.000824,0,0,1.000824,-9727.9535,-21186.135)"><path
         d="m 10014.976,21219.107 c -71.7123,0 -85.1646,102.141 -44.8224,102.141 40.3364,0 116.5374,-102.141 44.8224,-102.141 z"
         id="path3775"
         style="fill:#ffffff;fill-opacity:1;fill-rule:nonzero;stroke:none" /><path
         d="m 9895.8995,21308.591 c 21.4799,1.312 45.0468,-81.972 4.6755,-76.734 -40.3568,5.238 -26.1641,75.423 -4.6755,76.734 z"
         id="path3777"
         style="fill:#ffffff;fill-opacity:1;fill-rule:nonzero;stroke:none" /><path
         d="m 9797.4576,21360.343 c 15.277,-6.725 1.9676,-72.5 -24.01,-54.562 -25.9659,17.942 8.733,61.283 24.01,54.562 z"
         id="path3779"
         style="fill:#ffffff;fill-opacity:1;fill-rule:nonzero;stroke:none" /><path
         d="m 9840.5019,21325.915 c 18.186,-3.708 19.1829,-78.306 -13.2482,-64.924 -32.437,13.385 -4.9233,68.637 13.2482,64.924 l 0,0 z"
         id="path3781"
         style="fill:#ffffff;fill-opacity:1;fill-rule:nonzero;stroke:none" /><path
         d="m 9935.4663,21492.854 c 3.2268,24.642 -18.0782,36.812 -38.943,20.926 -66.4218,-50.571 109.9757,-75.799 98.3486,-144.888 -9.6512,-57.348 -185.609,-39.692 -205.646,50.04 -13.563,60.691 55.829,144.891 128.2351,144.891 35.62,0 76.7055,-32.163 84.392,-72.908 5.871,-31.07 -69.0801,-18.62 -66.3867,1.939 l 0,0 z"
         id="path3783"
         style="fill:#ffffff;fill-opacity:1;fill-rule:nonzero;stroke:none" /></g></g></svg>